<svg width="50" height="50" viewBox="0 0 50 50" fill="none" xmlns="http://www.w3.org/2000/svg">
<g id="building (1) 1" clip-path="url(#clip0_525_6446)">
<path id="Vector" d="M14.5833 29.1667C14.5833 29.7192 14.3638 30.2491 13.9731 30.6398C13.5824 31.0305 13.0525 31.25 12.5 31.25H10.4167C9.86413 31.25 9.33423 31.0305 8.94353 30.6398C8.55283 30.2491 8.33333 29.7192 8.33333 29.1667C8.33333 28.6141 8.55283 28.0842 8.94353 27.6935C9.33423 27.3028 9.86413 27.0833 10.4167 27.0833H12.5C13.0525 27.0833 13.5824 27.3028 13.9731 27.6935C14.3638 28.0842 14.5833 28.6141 14.5833 29.1667ZM22.9167 27.0833H20.8333C20.2808 27.0833 19.7509 27.3028 19.3602 27.6935C18.9695 28.0842 18.75 28.6141 18.75 29.1667C18.75 29.7192 18.9695 30.2491 19.3602 30.6398C19.7509 31.0305 20.2808 31.25 20.8333 31.25H22.9167C23.4692 31.25 23.9991 31.0305 24.3898 30.6398C24.7805 30.2491 25 29.7192 25 29.1667C25 28.6141 24.7805 28.0842 24.3898 27.6935C23.9991 27.3028 23.4692 27.0833 22.9167 27.0833ZM12.5 35.4167H10.4167C9.86413 35.4167 9.33423 35.6362 8.94353 36.0269C8.55283 36.4176 8.33333 36.9475 8.33333 37.5C8.33333 38.0525 8.55283 38.5824 8.94353 38.9731C9.33423 39.3638 9.86413 39.5833 10.4167 39.5833H12.5C13.0525 39.5833 13.5824 39.3638 13.9731 38.9731C14.3638 38.5824 14.5833 38.0525 14.5833 37.5C14.5833 36.9475 14.3638 36.4176 13.9731 36.0269C13.5824 35.6362 13.0525 35.4167 12.5 35.4167ZM22.9167 35.4167H20.8333C20.2808 35.4167 19.7509 35.6362 19.3602 36.0269C18.9695 36.4176 18.75 36.9475 18.75 37.5C18.75 38.0525 18.9695 38.5824 19.3602 38.9731C19.7509 39.3638 20.2808 39.5833 20.8333 39.5833H22.9167C23.4692 39.5833 23.9991 39.3638 24.3898 38.9731C24.7805 38.5824 25 38.0525 25 37.5C25 36.9475 24.7805 36.4176 24.3898 36.0269C23.9991 35.6362 23.4692 35.4167 22.9167 35.4167ZM12.5 10.4167H10.4167C9.86413 10.4167 9.33423 10.6362 8.94353 11.0269C8.55283 11.4176 8.33333 11.9475 8.33333 12.5C8.33333 13.0525 8.55283 13.5824 8.94353 13.9731C9.33423 14.3638 9.86413 14.5833 10.4167 14.5833H12.5C13.0525 14.5833 13.5824 14.3638 13.9731 13.9731C14.3638 13.5824 14.5833 13.0525 14.5833 12.5C14.5833 11.9475 14.3638 11.4176 13.9731 11.0269C13.5824 10.6362 13.0525 10.4167 12.5 10.4167ZM22.9167 10.4167H20.8333C20.2808 10.4167 19.7509 10.6362 19.3602 11.0269C18.9695 11.4176 18.75 11.9475 18.75 12.5C18.75 13.0525 18.9695 13.5824 19.3602 13.9731C19.7509 14.3638 20.2808 14.5833 20.8333 14.5833H22.9167C23.4692 14.5833 23.9991 14.3638 24.3898 13.9731C24.7805 13.5824 25 13.0525 25 12.5C25 11.9475 24.7805 11.4176 24.3898 11.0269C23.9991 10.6362 23.4692 10.4167 22.9167 10.4167ZM12.5 18.75H10.4167C9.86413 18.75 9.33423 18.9695 8.94353 19.3602C8.55283 19.7509 8.33333 20.2808 8.33333 20.8333C8.33333 21.3859 8.55283 21.9158 8.94353 22.3065C9.33423 22.6972 9.86413 22.9167 10.4167 22.9167H12.5C13.0525 22.9167 13.5824 22.6972 13.9731 22.3065C14.3638 21.9158 14.5833 21.3859 14.5833 20.8333C14.5833 20.2808 14.3638 19.7509 13.9731 19.3602C13.5824 18.9695 13.0525 18.75 12.5 18.75ZM22.9167 18.75H20.8333C20.2808 18.75 19.7509 18.9695 19.3602 19.3602C18.9695 19.7509 18.75 20.2808 18.75 20.8333C18.75 21.3859 18.9695 21.9158 19.3602 22.3065C19.7509 22.6972 20.2808 22.9167 20.8333 22.9167H22.9167C23.4692 22.9167 23.9991 22.6972 24.3898 22.3065C24.7805 21.9158 25 21.3859 25 20.8333C25 20.2808 24.7805 19.7509 24.3898 19.3602C23.9991 18.9695 23.4692 18.75 22.9167 18.75ZM50 20.8333V39.5833C49.9967 42.345 48.8982 44.9926 46.9454 46.9454C44.9926 48.8982 42.345 49.9967 39.5833 50H10.4167C7.65501 49.9967 5.00741 48.8982 3.05462 46.9454C1.10184 44.9926 0.00330804 42.345 0 39.5833L0 10.4167C0.00330804 7.65501 1.10184 5.00741 3.05462 3.05462C5.00741 1.10184 7.65501 0.00330804 10.4167 0L22.9167 0C25.6783 0.00330804 28.3259 1.10184 30.2787 3.05462C32.2315 5.00741 33.33 7.65501 33.3333 10.4167H39.5833C42.345 10.42 44.9926 11.5185 46.9454 13.4713C48.8982 15.4241 49.9967 18.0717 50 20.8333ZM10.4167 45.8333H29.1667V10.4167C29.1667 8.75906 28.5082 7.16935 27.3361 5.99725C26.164 4.82515 24.5743 4.16667 22.9167 4.16667H10.4167C8.75906 4.16667 7.16935 4.82515 5.99725 5.99725C4.82515 7.16935 4.16667 8.75906 4.16667 10.4167V39.5833C4.16667 41.2409 4.82515 42.8306 5.99725 44.0028C7.16935 45.1749 8.75906 45.8333 10.4167 45.8333ZM45.8333 20.8333C45.8333 19.1757 45.1749 17.586 44.0028 16.4139C42.8306 15.2418 41.2409 14.5833 39.5833 14.5833H33.3333V45.8333H39.5833C41.2409 45.8333 42.8306 45.1749 44.0028 44.0028C45.1749 42.8306 45.8333 41.2409 45.8333 39.5833V20.8333ZM39.5833 27.0833C39.1713 27.0833 38.7685 27.2055 38.4259 27.4344C38.0833 27.6634 37.8163 27.9887 37.6586 28.3694C37.5009 28.7501 37.4596 29.169 37.54 29.5731C37.6204 29.9772 37.8188 30.3484 38.1102 30.6398C38.4016 30.9312 38.7728 31.1296 39.1769 31.21C39.581 31.2904 39.9999 31.2491 40.3806 31.0914C40.7613 30.9337 41.0866 30.6667 41.3156 30.3241C41.5445 29.9815 41.6667 29.5787 41.6667 29.1667C41.6667 28.6141 41.4472 28.0842 41.0565 27.6935C40.6658 27.3028 40.1359 27.0833 39.5833 27.0833ZM39.5833 35.4167C39.1713 35.4167 38.7685 35.5388 38.4259 35.7678C38.0833 35.9967 37.8163 36.3221 37.6586 36.7027C37.5009 37.0834 37.4596 37.5023 37.54 37.9064C37.6204 38.3106 37.8188 38.6818 38.1102 38.9731C38.4016 39.2645 38.7728 39.4629 39.1769 39.5433C39.581 39.6237 39.9999 39.5824 40.3806 39.4247C40.7613 39.2671 41.0866 39 41.3156 38.6574C41.5445 38.3148 41.6667 37.912 41.6667 37.5C41.6667 36.9475 41.4472 36.4176 41.0565 36.0269C40.6658 35.6362 40.1359 35.4167 39.5833 35.4167ZM39.5833 18.75C39.1713 18.75 38.7685 18.8722 38.4259 19.1011C38.0833 19.33 37.8163 19.6554 37.6586 20.0361C37.5009 20.4168 37.4596 20.8356 37.54 21.2398C37.6204 21.6439 37.8188 22.0151 38.1102 22.3065C38.4016 22.5978 38.7728 22.7962 39.1769 22.8766C39.581 22.957 39.9999 22.9158 40.3806 22.7581C40.7613 22.6004 41.0866 22.3334 41.3156 21.9908C41.5445 21.6482 41.6667 21.2454 41.6667 20.8333C41.6667 20.2808 41.4472 19.7509 41.0565 19.3602C40.6658 18.9695 40.1359 18.75 39.5833 18.75Z" fill="#CCCCCC"/>
</g>
<defs>
<clipPath id="clip0_525_6446">
<rect width="50" height="50" fill="white"/>
</clipPath>
</defs>
</svg>
