<svg width="25" height="25" viewBox="0 0 25 25" fill="none" xmlns="http://www.w3.org/2000/svg">
<g id="tick-circle-svgrepo-com (2) 1">
<path id="Vector" d="M12.4987 2.08301C6.75911 2.08301 2.08203 6.76009 2.08203 12.4997C2.08203 18.2393 6.75911 22.9163 12.4987 22.9163C18.2383 22.9163 22.9154 18.2393 22.9154 12.4997C22.9154 6.76009 18.2383 2.08301 12.4987 2.08301ZM17.4779 10.1038L11.5716 16.0101C11.4258 16.1559 11.2279 16.2393 11.0195 16.2393C10.8112 16.2393 10.6133 16.1559 10.4674 16.0101L7.51953 13.0622C7.21745 12.7601 7.21745 12.2601 7.51953 11.958C7.82161 11.6559 8.32161 11.6559 8.6237 11.958L11.0195 14.3538L16.3737 8.99967C16.6758 8.69759 17.1758 8.69759 17.4779 8.99967C17.7799 9.30176 17.7799 9.79134 17.4779 10.1038Z" fill="#C8EDC7"/>
</g>
</svg>
