<svg width="34" height="34" viewBox="0 0 34 34" fill="none" xmlns="http://www.w3.org/2000/svg">
<path d="M0 28C0 12.536 12.536 0 28 0H29C31.7614 0 34 2.23858 34 5V29C34 31.7614 31.7614 34 29 34H5C2.23858 34 0 31.7614 0 29V28Z" fill="#1B3A6F"/>
<path d="M22.7188 13.1162C21.6168 11.8558 20.666 10.7677 20.666 7.83342C20.666 7.57309 20.5702 7.32559 20.404 7.15142C20.2369 6.97817 20.0137 6.89659 19.7912 6.92134C17.9031 7.15325 14.3327 8.79225 14.3327 13.3334C14.3327 13.5158 14.4285 16.7113 13.9463 17.2888C13.8767 17.3723 13.7738 17.4584 13.541 17.4584C13.3969 17.4584 13.3027 17.4108 13.2069 17.287C12.7406 16.6921 12.6567 14.9403 12.7454 13.8871C12.7652 13.6515 12.7058 13.426 12.591 13.2482C12.5419 13.1721 12.4818 13.1033 12.4113 13.0465C12.1326 12.821 11.7645 12.8274 11.493 13.0538C11.3774 13.151 11.2824 13.2848 11.2238 13.4471L11.0821 13.8422C10.5897 15.2007 9.97772 16.8928 9.97852 18.3751C9.98089 23.8274 12.7921 27.0834 17.4993 27.0834C22.3491 27.0834 25.0202 24.1538 25.0202 18.8334C25.0202 15.747 23.7979 14.3491 22.7188 13.1162Z" fill="#FAFEFF"/>
</svg>
