<svg width="26" height="24" viewBox="0 0 26 24" fill="none" xmlns="http://www.w3.org/2000/svg">
<g id="star">
<rect id="Rectangle" opacity="0.01" x="25.9727" width="24" height="25.1439" transform="rotate(90 25.9727 0)" fill="#7A5AF8"/>
<path id="Path" d="M19.2245 21.0002C19.0569 21.0008 18.8917 20.9631 18.7426 20.8902L13.3995 18.2202L8.05641 20.8902C7.70244 21.0679 7.27338 21.0377 6.95053 20.8124C6.62767 20.5871 6.46735 20.206 6.5373 19.8302L7.58496 14.2002L3.26859 10.2002C2.99416 9.93881 2.89341 9.55412 3.00667 9.2002C3.13055 8.83763 3.45971 8.57387 3.85528 8.5202L9.82696 7.6902L12.4566 2.5602C12.6316 2.21521 12.9979 1.99609 13.3995 1.99609C13.8011 1.99609 14.1673 2.21521 14.3424 2.5602L17.0034 7.6802L22.9751 8.5102C23.3707 8.56387 23.6999 8.82763 23.8237 9.1902C23.937 9.54412 23.8362 9.9288 23.5618 10.1902L19.2454 14.1902L20.2931 19.8202C20.3695 20.203 20.2059 20.5933 19.874 20.8202C19.6843 20.9471 19.4559 21.0104 19.2245 21.0002Z" fill="#7A5AF8"/>
</g>
</svg>
