<svg width="25" height="24" viewBox="0 0 25 24" fill="none" xmlns="http://www.w3.org/2000/svg">
<g id="Frame">
<path id="Vector" d="M10.5 7.74957C10.5002 7.61636 10.536 7.48562 10.6035 7.37079C10.671 7.25597 10.7679 7.1612 10.8842 7.09623C11.0005 7.03126 11.132 6.99843 11.2652 7.00113C11.3984 7.00383 11.5284 7.04195 11.642 7.11157L15.306 9.36057C15.4152 9.42768 15.5054 9.52164 15.5679 9.63351C15.6305 9.74537 15.6633 9.87141 15.6633 9.99957C15.6633 10.1277 15.6305 10.2538 15.5679 10.3656C15.5054 10.4775 15.4152 10.5715 15.306 10.6386L11.642 12.8886C11.5283 12.9583 11.398 12.9964 11.2647 12.999C11.1313 13.0016 10.9997 12.9686 10.8833 12.9034C10.767 12.8382 10.6701 12.7432 10.6027 12.6281C10.5354 12.513 10.4999 12.382 10.5 12.2486V7.74957Z" stroke="black" stroke-width="2" stroke-linecap="round" stroke-linejoin="round"/>
<path id="Vector_2" d="M7.5 21H17.5" stroke="black" stroke-width="2" stroke-linecap="round" stroke-linejoin="round"/>
<path id="Vector_3" d="M20.5 3H4.5C3.39543 3 2.5 3.89543 2.5 5V15C2.5 16.1046 3.39543 17 4.5 17H20.5C21.6046 17 22.5 16.1046 22.5 15V5C22.5 3.89543 21.6046 3 20.5 3Z" stroke="black" stroke-width="2" stroke-linecap="round" stroke-linejoin="round"/>
</g>
</svg>
