<svg width="16" height="17" viewBox="0 0 16 17" fill="none" xmlns="http://www.w3.org/2000/svg">
<g id="car-rear 1" clip-path="url(#clip0_525_6331)">
<path id="Vector" d="M15.732 8.31202L13.9313 3.36068C13.4547 2.04802 12.196 1.16602 10.7993 1.16602H5.20133C3.804 1.16602 2.546 2.04802 2.06933 3.36002L0.268 8.31202C0.09 8.80068 0 9.31202 0 9.83335V10.5C0 11.586 0.53 12.5433 1.336 13.152C1.336 13.1573 1.33333 13.1613 1.33333 13.1667V14.5C1.33333 15.6027 2.23067 16.5 3.33333 16.5C4.436 16.5 5.33333 15.6027 5.33333 14.5V13.8333H10.6667V14.5C10.6667 15.6027 11.564 16.5 12.6667 16.5C13.7693 16.5 14.6667 15.6027 14.6667 14.5V13.1667C14.6667 13.1613 14.664 13.1573 14.664 13.152C15.4707 12.5433 16 11.586 16 10.5V9.83335C16 9.31202 15.9093 8.80068 15.732 8.31202ZM3.32133 3.81602C3.608 3.02868 4.36267 2.50002 5.20067 2.50002H10.798C11.636 2.50002 12.3913 3.02868 12.6773 3.81668L13.6533 6.50002H2.34533L3.32133 3.81602ZM4 14.5C4 14.8673 3.70133 15.1667 3.33333 15.1667C2.96533 15.1667 2.66667 14.8673 2.66667 14.5V13.766C2.882 13.81 3.10533 13.8333 3.33333 13.8333H4V14.5ZM13.3333 14.5C13.3333 14.8673 13.0347 15.1667 12.6667 15.1667C12.2987 15.1667 12 14.8673 12 14.5V13.8333H12.6667C12.8947 13.8333 13.118 13.81 13.3333 13.766V14.5ZM12.6667 12.5H10.6667V11.8333C10.6667 11.4653 10.3687 11.1667 10 11.1667H6C5.63133 11.1667 5.33333 11.4653 5.33333 11.8333V12.5H3.33333C2.23067 12.5 1.33333 11.6027 1.33333 10.5H2.66667C3.03533 10.5 3.33333 10.2013 3.33333 9.83335C3.33333 9.46535 3.03533 9.16668 2.66667 9.16668H1.414C1.44333 9.03268 1.47333 8.89802 1.52067 8.76802L1.86067 7.83335H14.1393L14.4793 8.76802C14.5267 8.89802 14.5567 9.03202 14.586 9.16668H13.3333C12.9647 9.16668 12.6667 9.46535 12.6667 9.83335C12.6667 10.2013 12.9647 10.5 13.3333 10.5H14.6667C14.6667 11.6027 13.7693 12.5 12.6667 12.5Z" fill="black"/>
</g>
<defs>
<clipPath id="clip0_525_6331">
<rect width="16" height="16" fill="white" transform="translate(0 0.5)"/>
</clipPath>
</defs>
</svg>
