<svg width="51" height="50" viewBox="0 0 51 50" fill="none" xmlns="http://www.w3.org/2000/svg">
<g id="degree-credential 1" clip-path="url(#clip0_232_9046)">
<path id="Vector" d="M50.5 14.5827V35.416C50.5 37.9556 49.575 40.4035 47.8958 42.3056C47.1312 43.1723 45.8146 43.2494 44.9562 42.4889C44.0917 41.7264 44.0104 40.4098 44.7708 39.5473C45.7771 38.4056 46.3333 36.9389 46.3333 35.4139V14.5827C46.3333 11.1368 43.5292 8.33268 40.0833 8.33268H10.9167C7.47083 8.33268 4.66667 11.1368 4.66667 14.5827V35.416C4.66667 38.8619 7.47083 41.666 10.9167 41.666H23.4167C24.5687 41.666 25.5 42.5994 25.5 43.7494C25.5 44.8994 24.5687 45.8327 23.4167 45.8327H10.9167C5.17292 45.8327 0.5 41.1598 0.5 35.416V14.5827C0.5 8.83893 5.17292 4.16602 10.9167 4.16602H40.0833C45.8271 4.16602 50.5 8.83893 50.5 14.5827ZM13 18.7493H38C39.1521 18.7493 40.0833 17.816 40.0833 16.666C40.0833 15.516 39.1521 14.5827 38 14.5827H13C11.8479 14.5827 10.9167 15.516 10.9167 16.666C10.9167 17.816 11.8479 18.7493 13 18.7493ZM43.2083 33.3327C43.2083 35.9473 41.9729 38.2556 40.0833 39.7848V48.6389C40.0833 49.9369 38.4354 50.4931 37.6479 49.4619L34.875 45.8306L32.1021 49.4619C31.3146 50.4931 29.6667 49.9369 29.6667 48.6389V39.7848C27.7771 38.2556 26.5417 35.9473 26.5417 33.3327C26.5417 28.7369 30.2792 24.9994 34.875 24.9994C39.4708 24.9994 43.2083 28.7369 43.2083 33.3327ZM30.7083 33.3327C30.7083 35.6306 32.5771 37.4994 34.875 37.4994C37.1729 37.4994 39.0417 35.6306 39.0417 33.3327C39.0417 31.0348 37.1729 29.166 34.875 29.166C32.5771 29.166 30.7083 31.0348 30.7083 33.3327ZM25.5 24.9994C25.5 23.8493 24.5687 22.916 23.4167 22.916H13C11.8479 22.916 10.9167 23.8493 10.9167 24.9994C10.9167 26.1494 11.8479 27.0827 13 27.0827H23.4167C24.5687 27.0827 25.5 26.1494 25.5 24.9994ZM13 31.2494C11.8479 31.2494 10.9167 32.1827 10.9167 33.3327C10.9167 34.4827 11.8479 35.416 13 35.416H19.25C20.4021 35.416 21.3333 34.4827 21.3333 33.3327C21.3333 32.1827 20.4021 31.2494 19.25 31.2494H13Z" fill="#CCCCCC" fill-opacity="0.8"/>
</g>
<defs>
<clipPath id="clip0_232_9046">
<rect width="50" height="50" fill="white" transform="translate(0.5)"/>
</clipPath>
</defs>
</svg>
