<svg width="51" height="51" viewBox="0 0 51 51" fill="none" xmlns="http://www.w3.org/2000/svg">
<g id="graduation-cap 1" clip-path="url(#clip0_232_9017)">
<path id="Vector" d="M46.4532 11.3964L31.0907 4.07761C27.709 2.05768 23.5 2.02184 20.0844 3.98385L4.54906 11.3964C4.49076 11.4256 4.43031 11.4568 4.37406 11.4901C0.687345 13.5981 -0.592538 18.2957 1.51547 21.9824C2.23002 23.2322 3.28109 24.2562 4.54906 24.9381L8.83451 26.9798V37.1881C8.83705 41.7528 11.8073 45.7856 16.1658 47.1423C19.1989 48.0197 22.3439 48.4493 25.5012 48.4173C28.658 48.4526 31.8031 48.0266 34.8367 47.1527C39.1952 45.7962 42.1654 41.7632 42.1679 37.1985V26.9756L46.3346 24.9839V42.1672C46.3346 43.3177 47.2673 44.2505 48.4179 44.2505C49.5685 44.2505 50.5012 43.3177 50.5012 42.1672V17.1672C50.5151 14.7208 48.5834 12.4608 46.4532 11.3964ZM38.0011 37.1985C38.0022 39.9289 36.2307 42.344 33.6261 43.1631C30.9849 43.9177 28.2479 44.284 25.5011 44.2506C22.7543 44.284 20.0173 43.9177 17.3761 43.1631C14.7715 42.3439 13 39.9289 13.0011 37.1985V28.9652L19.9116 32.2569C21.6166 33.2694 23.564 33.8014 25.547 33.7965C27.4345 33.8098 29.2903 33.3101 30.9158 32.3506L38.0011 28.9651V37.1985ZM44.6678 21.1776L28.9553 28.6776C26.7645 29.9533 24.049 29.9172 21.8928 28.5839L6.51986 21.2714C4.80629 20.3473 4.16625 18.2091 5.09027 16.4957C5.40277 15.9162 5.87133 15.4358 6.44281 15.1089L22.0574 7.65055C24.2489 6.3777 26.9629 6.41374 29.1199 7.7443L44.4824 15.0631C45.6122 15.6904 46.319 16.8751 46.3344 18.1673C46.3365 19.3913 45.7062 20.5296 44.6678 21.1776Z" fill="#CCCCCC"/>
</g>
<defs>
<clipPath id="clip0_232_9017">
<rect width="50" height="50" fill="white" transform="translate(0.5 0.5)"/>
</clipPath>
</defs>
</svg>
