<svg width="26" height="24" viewBox="0 0 26 24" fill="none" xmlns="http://www.w3.org/2000/svg">
<g id="grid">
<rect id="Rectangle" opacity="0.01" x="0.714844" width="25.1439" height="24" fill="#7A5AF8"/>
<path id="Path" d="M10.1454 3H5.9547C4.79748 3 3.85938 3.89543 3.85938 5V9C3.85938 10.1046 4.79748 11 5.9547 11H10.1454C11.3026 11 12.2407 10.1046 12.2407 9V5C12.2407 3.89543 11.3026 3 10.1454 3Z" fill="#7A5AF8"/>
<path id="Path_2" d="M20.6219 3H16.4313C15.274 3 14.3359 3.89543 14.3359 5V9C14.3359 10.1046 15.274 11 16.4313 11H20.6219C21.7791 11 22.7172 10.1046 22.7172 9V5C22.7172 3.89543 21.7791 3 20.6219 3Z" fill="#7A5AF8"/>
<path id="Path_3" d="M10.1454 13H5.9547C4.79748 13 3.85938 13.8954 3.85938 15V19C3.85938 20.1046 4.79748 21 5.9547 21H10.1454C11.3026 21 12.2407 20.1046 12.2407 19V15C12.2407 13.8954 11.3026 13 10.1454 13Z" fill="#7A5AF8"/>
<path id="Path_4" d="M20.6219 13H16.4313C15.274 13 14.3359 13.8954 14.3359 15V19C14.3359 20.1046 15.274 21 16.4313 21H20.6219C21.7791 21 22.7172 20.1046 22.7172 19V15C22.7172 13.8954 21.7791 13 20.6219 13Z" fill="#7A5AF8"/>
</g>
</svg>
