<svg width="27" height="24" viewBox="0 0 27 24" fill="none" xmlns="http://www.w3.org/2000/svg">
<g id="layers">
<rect id="Rectangle" opacity="0.01" x="26.0781" y="24" width="25.1439" height="24" transform="rotate(180 26.0781 24)" fill="#7A5AF8"/>
<path id="Path" d="M4.32718 7.28991L13.2533 11.9199C13.4104 11.9999 13.599 11.9999 13.7561 11.9199L22.6822 7.28991C22.8487 7.21142 22.9497 7.04521 22.9382 6.86828C22.9268 6.69135 22.8052 6.53826 22.6298 6.47991L13.7038 2.99991C13.5762 2.9499 13.4332 2.9499 13.3056 2.99991L4.37956 6.47991C4.20419 6.53826 4.08263 6.69135 4.07119 6.86828C4.05975 7.04521 4.16066 7.21142 4.32718 7.28991Z" fill="#7A5AF8"/>
<path id="Path_2" d="M22.6288 10.6599L20.7116 9.87988L13.7551 13.4899C13.5979 13.5699 13.4094 13.5699 13.2522 13.4899L6.29574 9.87988L4.37852 10.6599C4.21303 10.7428 4.10938 10.9065 4.10938 11.0849C4.10938 11.2633 4.21303 11.427 4.37852 11.5099L13.3046 16.4099C13.4589 16.5 13.6531 16.5 13.8075 16.4099L22.7336 11.5099C22.8912 11.4098 22.9765 11.2337 22.9544 11.0542C22.9323 10.8747 22.8064 10.7224 22.6288 10.6599Z" fill="#7A5AF8"/>
<path id="Path_3" d="M22.6289 15.0999L20.9945 14.4199L13.7552 18.1799C13.598 18.2599 13.4095 18.2599 13.2523 18.1799L6.01297 14.4199L4.37861 15.0999C4.2084 15.1842 4.10156 15.3519 4.10156 15.5349C4.10156 15.7179 4.2084 15.8857 4.37861 15.9699L13.3047 20.9699C13.4618 21.0499 13.6504 21.0499 13.8076 20.9699L22.7337 15.9699C22.896 15.8684 22.9845 15.6881 22.9624 15.5041C22.9402 15.32 22.8112 15.1636 22.6289 15.0999Z" fill="#7A5AF8"/>
</g>
</svg>
