<svg width="16" height="17" viewBox="0 0 16 17" fill="none" xmlns="http://www.w3.org/2000/svg">
<g id="marker 1" clip-path="url(#clip0_525_6326)">
<path id="Vector" d="M7.9987 4.5C7.47128 4.5 6.95571 4.6564 6.51718 4.94941C6.07865 5.24243 5.73685 5.65891 5.53502 6.14618C5.33319 6.63345 5.28038 7.16962 5.38327 7.68691C5.48617 8.20419 5.74014 8.67935 6.11308 9.05229C6.48602 9.42523 6.96118 9.6792 7.47846 9.78209C7.99574 9.88499 8.53192 9.83218 9.01919 9.63035C9.50646 9.42851 9.92294 9.08672 10.216 8.64819C10.509 8.20966 10.6654 7.69408 10.6654 7.16667C10.6654 6.45942 10.3844 5.78115 9.88432 5.28105C9.38422 4.78095 8.70594 4.5 7.9987 4.5ZM7.9987 8.5C7.73499 8.5 7.47721 8.4218 7.25794 8.27529C7.03867 8.12878 6.86778 7.92055 6.76686 7.67691C6.66594 7.43328 6.63954 7.16519 6.69099 6.90655C6.74243 6.64791 6.86942 6.41033 7.05589 6.22386C7.24236 6.03739 7.47994 5.9104 7.73858 5.85895C7.99722 5.80751 8.26531 5.83391 8.50894 5.93483C8.75258 6.03574 8.96082 6.20664 9.10733 6.42591C9.25383 6.64517 9.33203 6.90296 9.33203 7.16667C9.33203 7.52029 9.19156 7.85943 8.94151 8.10948C8.69146 8.35952 8.35232 8.5 7.9987 8.5Z" fill="black"/>
<path id="Vector_2" d="M8.00021 16.5004C7.43884 16.5032 6.88495 16.3716 6.38492 16.1164C5.88489 15.8612 5.45327 15.49 5.12621 15.0337C2.58554 11.529 1.29688 8.89436 1.29688 7.20236C1.29688 5.42452 2.00312 3.7195 3.26024 2.46238C4.51735 1.20527 6.22237 0.499023 8.00021 0.499023C9.77804 0.499023 11.4831 1.20527 12.7402 2.46238C13.9973 3.7195 14.7035 5.42452 14.7035 7.20236C14.7035 8.89436 13.4149 11.529 10.8742 15.0337C10.5471 15.49 10.1155 15.8612 9.6155 16.1164C9.11547 16.3716 8.56158 16.5032 8.00021 16.5004ZM8.00021 1.95436C6.60849 1.95595 5.27422 2.50951 4.29012 3.4936C3.30603 4.4777 2.75246 5.81197 2.75087 7.20369C2.75087 8.54369 4.01287 11.0217 6.30354 14.181C6.498 14.4489 6.75312 14.6669 7.04802 14.8172C7.34291 14.9675 7.66921 15.0459 8.00021 15.0459C8.33121 15.0459 8.6575 14.9675 8.9524 14.8172C9.24729 14.6669 9.50241 14.4489 9.69687 14.181C11.9875 11.0217 13.2495 8.54369 13.2495 7.20369C13.248 5.81197 12.6944 4.4777 11.7103 3.4936C10.7262 2.50951 9.39193 1.95595 8.00021 1.95436Z" fill="black"/>
</g>
<defs>
<clipPath id="clip0_525_6326">
<rect width="16" height="16" fill="white" transform="translate(0 0.5)"/>
</clipPath>
</defs>
</svg>
