<svg width="60" height="60" viewBox="0 0 60 60" fill="none" xmlns="http://www.w3.org/2000/svg">
<g id="fire-flame-curved 1">
<path id="Vector" d="M46.4825 19.4078C43.0025 15.9703 40 13.0028 40 5.00032C40 4.29032 39.6975 3.61532 39.1725 3.14032C38.645 2.66782 37.94 2.44532 37.2375 2.51282C31.275 3.14532 20 7.61532 20 20.0003C20 20.4978 20.3025 29.2128 18.78 30.7878C18.56 31.0153 18.235 31.2503 17.5 31.2503C17.045 31.2503 16.7475 31.1203 16.445 30.7828C14.9725 29.1603 14.7075 24.3828 14.9875 21.5103C15.05 20.8678 14.8625 20.2528 14.5 19.7678C14.345 19.5603 14.155 19.3728 13.9325 19.2178C13.0525 18.6028 11.89 18.6203 11.0325 19.2378C10.6675 19.5028 10.3675 19.8678 10.1825 20.3103L9.735 21.3878C8.18 25.0928 6.2475 29.7078 6.25 33.7503C6.2575 48.6203 15.135 57.5003 30 57.5003C45.315 57.5003 53.75 49.5103 53.75 35.0003C53.75 26.5828 49.89 22.7703 46.4825 19.4078Z" fill="#C8EDC7"/>
</g>
</svg>
